<?xml version="1.0" encoding="UTF-8"?>
<svg width="200" height="200" viewBox="0 0 200 200" fill="none" xmlns="http://www.w3.org/2000/svg">
  <circle cx="4" cy="4" r="4" fill="currentColor" opacity="0.3"/>
  <circle cx="44" cy="4" r="4" fill="currentColor" opacity="0.3"/>
  <circle cx="84" cy="4" r="4" fill="currentColor" opacity="0.3"/>
  <circle cx="124" cy="4" r="4" fill="currentColor" opacity="0.3"/>
  <circle cx="164" cy="4" r="4" fill="currentColor" opacity="0.3"/>
  <circle cx="4" cy="44" r="4" fill="currentColor" opacity="0.3"/>
  <circle cx="44" cy="44" r="4" fill="currentColor" opacity="0.3"/>
  <circle cx="84" cy="44" r="4" fill="currentColor" opacity="0.3"/>
  <circle cx="124" cy="44" r="4" fill="currentColor" opacity="0.3"/>
  <circle cx="164" cy="44" r="4" fill="currentColor" opacity="0.3"/>
  <circle cx="4" cy="84" r="4" fill="currentColor" opacity="0.3"/>
  <circle cx="44" cy="84" r="4" fill="currentColor" opacity="0.3"/>
  <circle cx="84" cy="84" r="4" fill="currentColor" opacity="0.3"/>
  <circle cx="124" cy="84" r="4" fill="currentColor" opacity="0.3"/>
  <circle cx="164" cy="84" r="4" fill="currentColor" opacity="0.3"/>
  <circle cx="4" cy="124" r="4" fill="currentColor" opacity="0.3"/>
  <circle cx="44" cy="124" r="4" fill="currentColor" opacity="0.3"/>
  <circle cx="84" cy="124" r="4" fill="currentColor" opacity="0.3"/>
  <circle cx="124" cy="124" r="4" fill="currentColor" opacity="0.3"/>
  <circle cx="164" cy="124" r="4" fill="currentColor" opacity="0.3"/>
  <circle cx="4" cy="164" r="4" fill="currentColor" opacity="0.3"/>
  <circle cx="44" cy="164" r="4" fill="currentColor" opacity="0.3"/>
  <circle cx="84" cy="164" r="4" fill="currentColor" opacity="0.3"/>
  <circle cx="124" cy="164" r="4" fill="currentColor" opacity="0.3"/>
  <circle cx="164" cy="164" r="4" fill="currentColor" opacity="0.3"/>
</svg> 