<svg width="16" height="16" viewBox="0 0 16 16" fill="none" xmlns="http://www.w3.org/2000/svg">
  <path d="M15.0037 14.0467L12.0444 11.0874C13.0844 9.87419 13.6689 8.32815 13.6689 6.68444C13.6689 3.00148 10.6674 0 6.98444 0C3.30148 0 0.300003 3.00148 0.300003 6.68444C0.300003 10.3674 3.30148 13.3689 6.98444 13.3689C8.62815 13.3689 10.1742 12.7844 11.3874 11.7444L14.3467 14.7037C14.4341 14.7911 14.5481 14.837 14.6652 14.837C14.7822 14.837 14.8963 14.7911 14.9837 14.7037C15.1615 14.5259 15.1615 14.2244 15.0037 14.0467ZM1.57778 6.68444C1.57778 3.70667 4.00667 1.27778 6.98444 1.27778C9.96222 1.27778 12.3911 3.70667 12.3911 6.68444C12.3911 9.66222 9.96222 12.0911 6.98444 12.0911C4.00667 12.0911 1.57778 9.66222 1.57778 6.68444Z" fill="#787A80"/>
</svg> 